<svg xmlns="http://www.w3.org/2000/svg" x="0px" y="0px" viewBox="0 0 500 500">
	<path fill="currentColor" d="M250,120c-70.6,0-129,57.5-129,129s57.5,129,129,129s129-58.5,129-129S320.6,120,250,120z M250,331.7c-45.4,0-82.7-37.3-82.7-82.7s37.3-82.7,82.7-82.7s82.7,37.3,82.7,82.7S295.4,331.7,250,331.7z"/>
	<circle fill="currentColor" cx="384.1" cy="116.9" r="29.2"/>
	<path fill="currentColor" d="M459.7,41.3C433.5,14.1,396.2,0,353.8,0H146.2C58.5,0,0,58.5,0,146.2v206.7c0,43.3,14.1,80.6,42.3,107.9c27.2,26.2,63.5,39.3,104.8,39.3h205.6c43.3,0,79.6-14.1,105.8-39.3c27.2-26.2,41.3-63.5,41.3-106.9V146.2C500,103.8,485.9,67.5,459.7,41.3z M455.6,353.8c0,31.2-11.1,56.5-29.2,73.6c-18.1,17.1-43.3,26.2-73.6,26.2H147.2c-30.2,0-55.4-9.1-73.6-26.2c-18.1-18.1-27.2-43.3-27.2-74.6V146.2c0-30.2,9.1-55.4,27.2-73.6c17.1-17.1,43.3-26.2,73.6-26.2h207.7c30.2,0,55.4,9.1,73.6,27.2c17.1,18.1,27.2,43.3,27.2,72.6V353.8z"/>
</svg>
