<svg xmlns="http://www.w3.org/2000/svg" x="0px" y="0px" viewBox="0 0 500 500" role="img" aria-labelledby="svg-icon-logo-title">
	{% if icon_title %}
	<title id="svg-icon-logo-title">{{ icon_title }}</title>
	{% endif %}
	<path fill="currentColor" d="M249.9,161.1c-38,0-68.8,35.3-68.8,78.7c0,26.2,11.2,49.4,28.5,63.7c6.8,27.1,22.4,44.4,40.9,44.4c18.5,0,34-17.9,40.8-45.2c16.7-14.4,27.5-37.2,27.5-62.9C318.7,196.4,287.9,161.1,249.9,161.1z M199.4,272.1c1.6-0.6,3.7-1.2,6.4-1.9l0,1.3c0,4.2,0.2,8.3,0.5,12.2C203.7,280.2,201.3,276.3,199.4,272.1z M220.8,297.7c-0.6-2.4-3.8-19.1-3.8-29.6c0-0.8,0,0.7,0-0.1c7.1-1.1,16.2-3.5,27.7-4.2l0.6,72.1C232.8,331.7,224.5,312.6,220.8,297.7z M280.5,296.9c-2.7,14.4-11.9,33.2-23.8,38.4l-0.6-71.5c11.6,0.6,20.6,3.2,27.6,4.2c0,0.8,0-0.6,0,0.2C283.7,278.3,282.6,285.9,280.5,296.9z M294.5,282.3c0.3-3.9,0.5-7.9,0.5-11.9c0-0.1,0-0.1,0-0.2c2.3,0.6,4.1,1.2,5.5,1.7C298.8,275.6,296.8,279.1,294.5,282.3z M256,251.7l-0.3-32.7c13-1.5,22.9-9,22.9-17.9c0-10-12.4-18.2-27.8-18.2s-27.8,8.1-27.8,18.2c0,8.6,9.1,15.8,21.4,17.7l0.3,32.9c-16.5,1.1-38.4,6-49.5,9c-1.8-6.6-2.8-13.6-2.8-20.9c0-37.2,25.8-67.4,57.5-67.4c31.7,0,57.5,30.2,57.5,67.4c0,7.2-1,14.2-2.8,20.7C294.3,257.5,274.9,252.6,256,251.7z"/>
	<path fill="currentColor" d="M426.1,73.9C379,26.9,316.5,1,250,1S121,26.9,73.9,73.9S1,183.5,1,250s25.9,129,72.9,176.1c47,47,109.6,72.9,176.1,72.9s129-25.9,176.1-72.9S499,316.5,499,250S473.1,121,426.1,73.9z M382.8,419.1c-6.5,5.1-13.3,9.9-20.4,14.2v-34.1c0-1.7-1.4-3-3-3h-0.8c-1.7,0-3,1.4-3,3v36.9c0,0.4,0.1,0.7,0.2,1.1c-31.3,17.8-67.4,27.9-105.9,27.9c-49.6,0-95.4-16.9-131.8-45.2v-171c0-42.8,20.4-80.8,52-105.1l0.1,0v0c22.3-17.1,50.1-27.2,80.3-27.2c73,0,132.3,59.4,132.3,132.3C382.8,248.9,382.8,419.1,382.8,419.1z M131,143.8c0-4.6,3.7-8.3,8.3-8.3c1.6,0,3.1,0.5,4.4,1.3c-3.9,3.8-7.7,7.7-11.2,11.9C131.6,147.2,131,145.6,131,143.8z M356.9,136.4c1.1-0.6,2.4-0.9,3.8-0.9c4.6,0,8.3,3.7,8.3,8.3c0,1.5-0.4,2.9-1.1,4.2C364.5,143.9,360.8,140,356.9,136.4z M415.9,386.7c-0.4-1-0.8-2.2-1.2-3.3h3.8C417.7,384.5,416.8,385.6,415.9,386.7z M427,372.1h-14.8c-0.8-5.5-1-11.6-0.7-18.1h26.7C434.7,360.3,431,366.3,427,372.1z M444,342.8h-31.3c0.7-4.4,1.7-8.9,3-13.5c0.3-1.2,0.7-2.3,1-3.4h34.6C449.1,331.6,446.7,337.2,444,342.8z M455.2,314.5h-34.3c2.8-6.6,6.1-12.7,9.8-18.1H460C458.7,302.6,457.1,308.6,455.2,314.5z M462.2,285.1H440c0.1-0.1,0.2-0.2,0.2-0.2c7.4-7.2,15.1-11.1,21.8-11.1c0.6,0,1.2,0,1.8,0.1C463.3,277.7,462.8,281.4,462.2,285.1z M424.5,268.7c-7.2,7-13.7,15.8-19.1,25.8v-45.7c0-30.2-8.7-58.5-23.8-82.3c6.1-5.7,10-13.8,10-22.8c0-17.1-13.9-30.9-30.9-30.9c-8.6,0-16.3,3.3-22,8.8c-25.1-17.4-55.5-27.7-88.3-27.7c-33.1,0-63.9,10.5-89.1,28.2c-5.6-5.8-13.5-9.3-22.1-9.3c-17.1,0-30.9,13.9-30.9,30.9c0,9.3,4.1,17.6,10.6,23.3c-14.8,23.8-23.4,51.8-23.4,81.8v150.8C58,360.9,34.9,308.1,34.9,250c0-118.6,96.5-215.1,215.1-215.1S465.1,131.4,465.1,250c0,0.4,0,0.9,0,1.3C451.5,250.2,437.4,256.2,424.5,268.7z"/>
	<path fill="currentColor" d="M146.3,280.2h-0.8c-1.7,0-3-1.4-3-3v-36.9c0-1.7,1.4-3,3-3h0.8c1.7,0,3,1.4,3,3v36.9C149.3,278.9,147.9,280.2,146.3,280.2z M350,321h-0.8c-1.7,0-3-1.4-3-3v-36.9c0-1.7,1.4-3,3-3h0.8c1.7,0,3,1.4,3,3V318C353,319.6,351.7,321,350,321z M318,380.4h-0.8c-1.7,0-3-1.4-3-3v-36.9c0-1.7,1.4-3,3-3h0.8c1.7,0,3,1.4,3,3v36.9C321,379,319.6,380.4,318,380.4z M202,398.5h-0.8c-1.7,0-3-1.4-3-3v-36.9c0-1.7,1.4-3,3-3h0.8c1.7,0,3,1.4,3,3v36.9C205.1,397.1,203.7,398.5,202,398.5z M142.5,377h-0.8c-1.7,0-3-1.4-3-3v-36.9c0-1.7,1.4-3,3-3h0.8c1.7,0,3,1.4,3,3V374C145.5,375.7,144.2,377,142.5,377z M252.6,441.4h-0.8c-1.7,0-3-1.4-3-3v-36.9c0-1.7,1.4-3,3-3h0.8c1.7,0,3,1.4,3,3v36.9C255.6,440.1,254.3,441.4,252.6,441.4z M303.3,451.6h-0.8c-1.7,0-3-1.4-3-3v-36.9c0-1.7,1.4-3,3-3h0.8c1.7,0,3,1.4,3,3v36.9C306.3,450.2,305,451.6,303.3,451.6z M166.2,444.8h-0.8c-1.7,0-3-1.4-3-3v-36.9c0-1.7,1.4-3,3-3h0.8c1.7,0,3,1.4,3,3v36.9C169.2,443.4,167.9,444.8,166.2,444.8z"/>
	<circle fill="currentColor" cx="330.2" cy="170.2" r="7.3"/>
	<circle fill="currentColor" cx="171.5" cy="170.2" r="7.3"/>
</svg>
