<svg xmlns="http://www.w3.org/2000/svg" x="0px" y="0px" viewBox="0 0 500 500" aria-hidden="true" focusable="false">
	<path fill="currentColor" d="M36.6,144h426.9c19.6,0,35.6-16.1,35.6-36s-15.9-36-35.6-36H36.6C16.9,72,1,88.1,1,108S16.9,144,36.6,144z"/>
	<path fill="currentColor" d="M463.4,214H36.6C16.9,214,1,230.1,1,250s15.9,36,35.6,36h426.9c19.6,0,35.6-16.1,35.6-36S483.1,214,463.4,214z"/>
	<path fill="currentColor" d="M463.4,356H36.6C16.9,356,1,372.1,1,392s15.9,36,35.6,36h426.9c19.6,0,35.6-16.1,35.6-36S483.1,356,463.4,356z"/>
</svg>
